<svg width="26" height="26" viewBox="0 0 26 26" fill="none" xmlns="http://www.w3.org/2000/svg">
<path d="M25.7876 6.21988H22.3076V9.61988H19.7276V6.21988H16.2676V3.77988H19.7276V0.379883H22.3076V3.77988H25.7876V6.21988Z" fill="#A8A8A8"/>
<path d="M7 15.75C6.31 15.75 5.75 16.31 5.75 17C5.75 17.69 6.31 18.25 7 18.25C7.69 18.25 8.25 17.69 8.25 17C8.25 16.31 7.69 15.75 7 15.75ZM13 15.75C12.31 15.75 11.75 16.31 11.75 17C11.75 17.69 12.31 18.25 13 18.25C13.69 18.25 14.25 17.69 14.25 17C14.25 16.31 13.69 15.75 13 15.75ZM10 6C4.48 6 0 10.48 0 16C0 21.52 4.48 26 10 26C15.52 26 20 21.52 20 16C20 10.48 15.52 6 10 6ZM10 24C5.59 24 2 20.41 2 16C2 15.71 2.02 15.42 2.05 15.14C4.41 14.09 6.28 12.16 7.26 9.77C9.07 12.33 12.05 14 15.42 14C16.2 14 16.95 13.91 17.67 13.74C17.88 14.45 18 15.21 18 16C18 20.41 14.41 24 10 24Z" fill="#A8A8A8"/>
</svg>
