<svg width="51" height="33" viewBox="0 0 51 33" fill="none" xmlns="http://www.w3.org/2000/svg">
<path d="M10.1626 12.18C9.33258 12.18 8.52758 12.07 7.74758 11.85C6.97758 11.62 6.35758 11.325 5.88758 10.965L6.71258 9.135C7.16258 9.465 7.69758 9.73 8.31758 9.93C8.93758 10.13 9.55758 10.23 10.1776 10.23C10.8676 10.23 11.3776 10.13 11.7076 9.93C12.0376 9.72 12.2026 9.445 12.2026 9.105C12.2026 8.855 12.1026 8.65 11.9026 8.49C11.7126 8.32 11.4626 8.185 11.1526 8.085C10.8526 7.985 10.4426 7.875 9.92258 7.755C9.12258 7.565 8.46758 7.375 7.95758 7.185C7.44758 6.995 7.00758 6.69 6.63758 6.27C6.27758 5.85 6.09758 5.29 6.09758 4.59C6.09758 3.98 6.26258 3.43 6.59258 2.94C6.92258 2.44 7.41758 2.045 8.07758 1.755C8.74758 1.465 9.56258 1.32 10.5226 1.32C11.1926 1.32 11.8476 1.4 12.4876 1.56C13.1276 1.72 13.6876 1.95 14.1676 2.25L13.4176 4.095C12.4476 3.545 11.4776 3.27 10.5076 3.27C9.82758 3.27 9.32258 3.38 8.99258 3.6C8.67258 3.82 8.51258 4.11 8.51258 4.47C8.51258 4.83 8.69758 5.1 9.06758 5.28C9.44758 5.45 10.0226 5.62 10.7926 5.79C11.5926 5.98 12.2476 6.17 12.7576 6.36C13.2676 6.55 13.7026 6.85 14.0626 7.26C14.4326 7.67 14.6176 8.225 14.6176 8.925C14.6176 9.525 14.4476 10.075 14.1076 10.575C13.7776 11.065 13.2776 11.455 12.6076 11.745C11.9376 12.035 11.1226 12.18 10.1626 12.18ZM21.018 11.61C20.788 11.78 20.503 11.91 20.163 12C19.833 12.08 19.483 12.12 19.113 12.12C18.153 12.12 17.408 11.875 16.878 11.385C16.358 10.895 16.098 10.175 16.098 9.225V5.91H14.853V4.11H16.098V2.145H18.438V4.11H20.448V5.91H18.438V9.195C18.438 9.535 18.523 9.8 18.693 9.99C18.873 10.17 19.123 10.26 19.443 10.26C19.813 10.26 20.128 10.16 20.388 9.96L21.018 11.61ZM30.1616 3.93V12H27.9416V11.04C27.6316 11.39 27.2616 11.66 26.8316 11.85C26.4016 12.03 25.9366 12.12 25.4366 12.12C24.3766 12.12 23.5366 11.815 22.9166 11.205C22.2966 10.595 21.9866 9.69 21.9866 8.49V3.93H24.3266V8.145C24.3266 9.445 24.8716 10.095 25.9616 10.095C26.5216 10.095 26.9716 9.915 27.3116 9.555C27.6516 9.185 27.8216 8.64 27.8216 7.92V3.93H30.1616ZM40.2494 0.869999V12H38.0144V11.07C37.4344 11.77 36.5944 12.12 35.4944 12.12C34.7344 12.12 34.0444 11.95 33.4244 11.61C32.8144 11.27 32.3344 10.785 31.9844 10.155C31.6344 9.525 31.4594 8.795 31.4594 7.965C31.4594 7.135 31.6344 6.405 31.9844 5.775C32.3344 5.145 32.8144 4.66 33.4244 4.32C34.0444 3.98 34.7344 3.81 35.4944 3.81C36.5244 3.81 37.3294 4.135 37.9094 4.785V0.869999H40.2494ZM35.8994 10.2C36.4894 10.2 36.9794 10 37.3694 9.6C37.7594 9.19 37.9544 8.645 37.9544 7.965C37.9544 7.285 37.7594 6.745 37.3694 6.345C36.9794 5.935 36.4894 5.73 35.8994 5.73C35.2994 5.73 34.8044 5.935 34.4144 6.345C34.0244 6.745 33.8294 7.285 33.8294 7.965C33.8294 8.645 34.0244 9.19 34.4144 9.6C34.8044 10 35.2994 10.2 35.8994 10.2ZM50.1252 3.93L46.4802 12.495C46.1102 13.425 45.6502 14.08 45.1002 14.46C44.5602 14.84 43.9052 15.03 43.1352 15.03C42.7152 15.03 42.3002 14.965 41.8902 14.835C41.4802 14.705 41.1452 14.525 40.8852 14.295L41.7402 12.63C41.9202 12.79 42.1252 12.915 42.3552 13.005C42.5952 13.095 42.8302 13.14 43.0602 13.14C43.3802 13.14 43.6402 13.06 43.8402 12.9C44.0402 12.75 44.2202 12.495 44.3802 12.135L44.4102 12.06L40.9152 3.93H43.3302L45.5952 9.405L47.8752 3.93H50.1252ZM8.65109 23.54C9.25109 23.73 9.72109 24.05 10.0611 24.5C10.4011 24.94 10.5711 25.485 10.5711 26.135C10.5711 27.055 10.2111 27.765 9.4911 28.265C8.78109 28.755 7.74109 29 6.37109 29H0.941095V18.5H6.07109C7.35109 18.5 8.3311 18.745 9.0111 19.235C9.7011 19.725 10.0461 20.39 10.0461 21.23C10.0461 21.74 9.9211 22.195 9.67109 22.595C9.43109 22.995 9.09109 23.31 8.65109 23.54ZM3.35609 20.33V22.805H5.77109C6.3711 22.805 6.82609 22.7 7.13609 22.49C7.44609 22.28 7.60109 21.97 7.60109 21.56C7.60109 21.15 7.44609 20.845 7.13609 20.645C6.82609 20.435 6.3711 20.33 5.77109 20.33H3.35609ZM6.19109 27.17C6.83109 27.17 7.31109 27.065 7.6311 26.855C7.9611 26.645 8.1261 26.32 8.1261 25.88C8.1261 25.01 7.4811 24.575 6.19109 24.575H3.35609V27.17H6.19109ZM20.0758 20.93V29H17.8558V28.04C17.5458 28.39 17.1758 28.66 16.7458 28.85C16.3158 29.03 15.8508 29.12 15.3508 29.12C14.2908 29.12 13.4508 28.815 12.8308 28.205C12.2108 27.595 11.9008 26.69 11.9008 25.49V20.93H14.2408V25.145C14.2408 26.445 14.7858 27.095 15.8758 27.095C16.4358 27.095 16.8858 26.915 17.2258 26.555C17.5658 26.185 17.7358 25.64 17.7358 24.92V20.93H20.0758ZM30.1637 17.87V29H27.9287V28.07C27.3487 28.77 26.5087 29.12 25.4087 29.12C24.6487 29.12 23.9587 28.95 23.3387 28.61C22.7287 28.27 22.2487 27.785 21.8987 27.155C21.5487 26.525 21.3737 25.795 21.3737 24.965C21.3737 24.135 21.5487 23.405 21.8987 22.775C22.2487 22.145 22.7287 21.66 23.3387 21.32C23.9587 20.98 24.6487 20.81 25.4087 20.81C26.4387 20.81 27.2437 21.135 27.8237 21.785V17.87H30.1637ZM25.8137 27.2C26.4037 27.2 26.8937 27 27.2837 26.6C27.6737 26.19 27.8687 25.645 27.8687 24.965C27.8687 24.285 27.6737 23.745 27.2837 23.345C26.8937 22.935 26.4037 22.73 25.8137 22.73C25.2137 22.73 24.7187 22.935 24.3287 23.345C23.9387 23.745 23.7437 24.285 23.7437 24.965C23.7437 25.645 23.9387 26.19 24.3287 26.6C24.7187 27 25.2137 27.2 25.8137 27.2ZM40.2494 17.87V29H38.0144V28.07C37.4344 28.77 36.5944 29.12 35.4944 29.12C34.7344 29.12 34.0444 28.95 33.4244 28.61C32.8144 28.27 32.3344 27.785 31.9844 27.155C31.6344 26.525 31.4594 25.795 31.4594 24.965C31.4594 24.135 31.6344 23.405 31.9844 22.775C32.3344 22.145 32.8144 21.66 33.4244 21.32C34.0444 20.98 34.7344 20.81 35.4944 20.81C36.5244 20.81 37.3294 21.135 37.9094 21.785V17.87H40.2494ZM35.8994 27.2C36.4894 27.2 36.9794 27 37.3694 26.6C37.7594 26.19 37.9544 25.645 37.9544 24.965C37.9544 24.285 37.7594 23.745 37.3694 23.345C36.9794 22.935 36.4894 22.73 35.8994 22.73C35.2994 22.73 34.8044 22.935 34.4144 23.345C34.0244 23.745 33.8294 24.285 33.8294 24.965C33.8294 25.645 34.0244 26.19 34.4144 26.6C34.8044 27 35.2994 27.2 35.8994 27.2ZM50.1252 20.93L46.4802 29.495C46.1102 30.425 45.6502 31.08 45.1002 31.46C44.5602 31.84 43.9052 32.03 43.1352 32.03C42.7152 32.03 42.3002 31.965 41.8902 31.835C41.4802 31.705 41.1452 31.525 40.8852 31.295L41.7402 29.63C41.9202 29.79 42.1252 29.915 42.3552 30.005C42.5952 30.095 42.8302 30.14 43.0602 30.14C43.3802 30.14 43.6402 30.06 43.8402 29.9C44.0402 29.75 44.2202 29.495 44.3802 29.135L44.4102 29.06L40.9152 20.93H43.3302L45.5952 26.405L47.8752 20.93H50.1252Z" fill="#373737"/>
</svg>
